<svg xmlns="http://www.w3.org/2000/svg" viewBox="0 0 2796.858 834.247" width="2797.203" height="838.957" fill="#fff"><path d="M419.424-.47C187.787-.47 0 187.314 0 418.95 0 650.61 187.787 838.384 419.424 838.384c231.647 0 419.424-187.773 419.424-419.434 0-231.622-187.767-419.4-419.429-419.4zm192.345 604.923c-7.533 12.356-23.63 16.228-35.946 8.7-98.491-60.197-222.46-73.795-368.457-40.443-14.07 3.225-28.093-5.595-31.298-19.659-3.22-14.069 5.559-28.092 19.663-31.298 159.77-36.526 296.817-20.805 407.369 46.75 12.32 7.562 16.227 23.64 8.664 35.96zm51.337-114.188c-9.486 15.391-29.61 20.22-44.981 10.768-112.716-69.287-284.591-89.356-417.942-48.877-17.294 5.224-35.56-4.523-40.809-21.787-5.208-17.294 4.543-35.525 21.807-40.784 152.323-46.218 341.683-23.83 471.152 55.73 15.376 9.465 20.234 29.6 10.768 44.955zm4.407-118.92c-135.198-80.292-358.205-87.674-487.268-48.503-20.725 6.286-42.642-5.414-48.923-26.14-6.28-20.734 5.41-42.636 26.15-48.937 148.155-44.976 394.446-36.286 550.08 56.105 18.64 11.064 24.756 35.14 13.707 53.756-11.018 18.641-35.16 24.787-53.74 13.718zM1141.114 386.73c-72.417-17.27-85.31-29.39-85.31-54.858 0-24.06 22.654-40.253 56.341-40.253 32.655 0 65.035 12.296 98.982 37.609a4.733 4.733 0 0 0 3.582.871 4.678 4.678 0 0 0 3.13-1.933l35.36-49.844a4.75 4.75 0 0 0-.902-6.451c-40.403-32.42-85.9-48.181-139.08-48.181-78.192 0-132.81 46.924-132.81 114.062 0 71.997 47.115 97.49 128.533 117.168 69.297 15.962 80.992 29.335 80.992 53.24 0 26.49-23.65 42.958-61.71 42.958-42.271 0-76.75-14.24-115.32-47.64-.956-.827-2.268-1.203-3.48-1.132a4.705 4.705 0 0 0-3.256 1.672l-39.647 47.185a4.704 4.704 0 0 0 .47 6.576c44.877 40.063 100.07 61.224 159.63 61.224 84.258 0 138.705-46.038 138.705-117.294.15-60.151-35.86-93.458-124.06-114.914zM1455.946 315.31c-36.521 0-66.477 14.384-91.179 43.859v-33.177c0-2.619-2.123-4.753-4.738-4.753h-64.845c-2.619 0-4.737 2.134-4.737 4.753v368.634c0 2.619 2.118 4.753 4.738 4.753h64.844c2.615 0 4.738-2.134 4.738-4.753V578.264c24.707 27.727 54.668 41.275 91.18 41.275 67.859 0 136.555-52.239 136.555-152.097.1-99.884-68.616-152.138-136.48-152.138zm61.154 152.132c0 50.85-31.323 86.336-76.174 86.336-44.34 0-77.787-37.098-77.787-86.336 0-49.234 33.447-86.336 77.787-86.336 44.125-.005 76.179 36.296 76.179 86.33zM1768.575 315.31c-87.393 0-155.859 67.293-155.859 153.218 0 84.99 67.995 151.577 154.787 151.577 87.703 0 156.38-67.069 156.38-152.663 0-85.3-68.216-152.123-155.313-152.123zm0 238.973c-46.484 0-81.528-37.348-81.528-86.866 0-49.73 33.832-85.816 80.456-85.816 46.784 0 82.064 37.349 82.064 86.902 0 49.72-34.058 85.78-80.987 85.78zM2110.503 321.24h-71.356v-72.954c0-2.614-2.113-4.748-4.733-4.748h-64.834a4.756 4.756 0 0 0-4.753 4.748v72.953h-31.178c-2.61 0-4.723 2.134-4.723 4.753v55.73c0 2.614 2.113 4.753 4.723 4.753h31.178v144.198c0 58.274 29.004 87.819 86.205 87.819 23.26 0 42.557-4.803 60.743-15.116 1.478-.826 2.394-2.419 2.394-4.112v-53.07a4.748 4.748 0 0 0-2.254-4.041c-1.412-.887-3.17-.932-4.618-.215-12.49 6.285-24.566 9.185-38.064 9.185-20.805 0-30.086-9.446-30.086-30.617V386.5h71.356c2.62 0 4.728-2.134 4.728-4.753v-55.725c.1-2.619-2.004-4.753-4.658-4.753zM2359.123 321.525v-8.96c0-26.36 10.107-38.115 32.775-38.115 13.518 0 24.377 2.685 36.537 6.742 1.498.47 3.06.235 4.277-.661 1.253-.897 1.959-2.334 1.959-3.857v-54.642a4.742 4.742 0 0 0-3.356-4.553c-12.847-3.821-29.284-7.743-53.896-7.743-59.891 0-91.55 33.727-91.55 97.5v13.723h-31.152c-2.615 0-4.758 2.134-4.758 4.748v56.015c0 2.614 2.143 4.753 4.758 4.753h31.152v222.42c0 2.62 2.114 4.754 4.728 4.754h64.845a4.76 4.76 0 0 0 4.753-4.753V386.49h60.542l92.742 222.366c-10.528 23.364-20.88 28.012-35.014 28.012-11.425 0-23.455-3.41-35.756-10.142-1.157-.636-2.529-.741-3.776-.356-1.237.436-2.279 1.358-2.805 2.56l-21.977 48.216a4.716 4.716 0 0 0 2.044 6.135c22.943 12.426 43.653 17.73 69.252 17.73 47.88 0 74.345-22.302 97.675-82.304l112.495-290.691a4.743 4.743 0 0 0-4.403-6.476h-67.504a4.765 4.765 0 0 0-4.492 3.185l-69.152 197.524-75.743-197.654a4.734 4.734 0 0 0-4.428-3.055h-110.787zM2214.98 321.24h-64.845a4.76 4.76 0 0 0-4.753 4.752v282.904a4.76 4.76 0 0 0 4.753 4.753h64.844a4.763 4.763 0 0 0 4.754-4.753V326.012a4.742 4.742 0 0 0-4.759-4.753zM2182.925 192.427c-25.688 0-46.533 20.795-46.533 46.483 0 25.704 20.85 46.524 46.533 46.524 25.679 0 46.504-20.82 46.504-46.524 0-25.683-20.835-46.483-46.479-46.483zM2750.986 412.198c-25.664 0-45.633-20.61-45.633-45.637s20.23-45.873 45.873-45.873c25.663 0 45.632 20.605 45.632 45.613 0 25.027-20.234 45.897-45.878 45.897zm.25-86.972c-23.375 0-41.06 18.582-41.06 41.335 0 22.743 17.56 41.074 40.825 41.074 23.37 0 41.074-18.566 41.074-41.334 0-22.744-17.58-41.075-40.819-41.075zm10.117 45.768l12.907 18.07h-10.884l-11.62-16.578h-9.991v16.578h-9.11v-47.9h21.36c11.13 0 18.447 5.694 18.447 15.28.05 7.853-4.508 12.651-11.069 14.55zm-7.713-21.612h-11.88v15.15h11.88c5.93 0 9.471-2.9 9.471-7.582 0-4.929-3.556-7.568-9.466-7.568z"/></svg>